<?xml version="1.0" encoding="utf-8"?>
<!-- Generator: Adobe Illustrator 13.0.0, SVG Export Plug-In . SVG Version: 6.00 Build 14948)  -->
<!DOCTYPE svg PUBLIC "-//W3C//DTD SVG 1.1//EN" "http://www.w3.org/Graphics/SVG/1.1/DTD/svg11.dtd">
<svg version="1.1" id="Layer_1" xmlns="http://www.w3.org/2000/svg" xmlns:xlink="http://www.w3.org/1999/xlink" x="0px" y="0px"
	 width="118px" height="128.003px" viewBox="0 0 118 128.003" enable-background="new 0 0 118 128.003" xml:space="preserve">
<g>
	<path fill="none" stroke="#FFFFFF" stroke-width="3" stroke-linecap="round" stroke-linejoin="round" d="M38.799,66.365
		l-7.708-7.062c-4.928-4.93-12.325-12.324-13.966-15.611c-3.119-6.235-2.466-10.683-4.111-13.969
		C11.902,27.496,5.508,22.252,1.5,19.102"/>
	<path fill="none" stroke="#FFFFFF" stroke-width="3" stroke-linecap="round" stroke-linejoin="round" d="M18.86,1.5
		c2.928,3.415,7.597,8.801,9.765,10.971c3.289,3.286,4.932,1.642,9.039,2.462c4.11,0.824,21.365,1.646,25.472,2.467
		c0,0,6.573,0,5.752,4.108c-1.531,7.644-14.789,4.929-16.434,4.929c-1.643,0,0,1.646,3.286,4.932l2.764,2.724"/>
	<path fill="none" stroke="#FFFFFF" stroke-width="3" stroke-linecap="round" stroke-linejoin="round" d="M55.699,38.693
		c4.93-4.931,12.326-12.324,15.611-13.969c6.236-3.115,10.682-2.466,13.968-4.107c3.286-1.645,13.146-14.79,13.146-14.79"/>
	<path fill="none" stroke="#FFFFFF" stroke-width="3" stroke-linecap="round" stroke-linejoin="round" d="M116.5,23.904
		c0,0-10.68,9.038-13.966,12.324s-1.646,4.93-2.466,9.038c-0.82,4.107-1.645,21.362-2.466,25.471c0,0,0,6.572-4.106,5.752
		c-7.643-1.528-4.932-14.79-4.932-16.433c0-1.645-1.642-0.001-4.928,3.286l-7.053,7.158"/>
	<path fill="none" stroke="#FFFFFF" stroke-width="3" stroke-linecap="round" stroke-linejoin="round" d="M44.353,126.501
		c0.182-2.411,0.391-5.354,0.545-8c0.133-2.271,0.226-4.323,0.226-5.635c0-4.647-2.32-4.647-4.646-8.133
		c-2.322-3.484-13.944-16.269-16.267-19.753c0,0-4.649-4.649-1.163-6.972c6.485-4.325,13.944,6.972,15.107,8.132
		c1.16,1.164,1.16-1.16,1.16-5.81l-0.223-29.973c0.07-2.078,1.777-3.724,3.854-3.724c2.083,0,3.792,1.644,3.871,3.723l0.922,24.163
		l0.956-32.294c0.063-2.075,1.762-3.726,3.839-3.726c2.076,0,3.779,1.649,3.844,3.726l0.949,29.973l0.923-24.166
		c0.079-2.077,1.788-3.723,3.869-3.723c2.079,0,3.786,1.647,3.861,3.725l0.933,26.485l0.876-17.192
		c0.106-2.086,1.829-3.722,3.918-3.722c2.083,0,3.799,1.64,3.89,3.723l0.904,20.68c0,6.972,0,17.429-1.163,20.914
		c-2.206,6.613-5.811,9.296-6.974,12.782c-0.348,1.045-0.383,3.237-0.261,5.796c0.139,2.91,0.479,6.295,0.793,9.002"/>
</g>
</svg>
