<?xml version="1.0" encoding="utf-8"?>
<!-- Generator: Adobe Illustrator 13.0.0, SVG Export Plug-In . SVG Version: 6.00 Build 14948)  -->
<!DOCTYPE svg PUBLIC "-//W3C//DTD SVG 1.1//EN" "http://www.w3.org/Graphics/SVG/1.1/DTD/svg11.dtd">
<svg version="1.1" id="Layer_1" xmlns="http://www.w3.org/2000/svg" xmlns:xlink="http://www.w3.org/1999/xlink" x="0px" y="0px"
	 width="128px" height="99.572px" viewBox="0 0 128 99.572" enable-background="new 0 0 128 99.572" xml:space="preserve">
<g>
	<path fill="#FFFFFF" d="M83.09,0v99.572H56.641V0H83.09 M80.09,3H59.641v93.572H80.09V3L80.09,3z"/>
	<path fill="#FFFFFF" d="M32.636,0.399l24.782,8.985l-32.635,89.41L0,89.81L32.636,0.399 M34.428,4.24L3.85,88.014l19.142,6.941
		l30.578-83.774L34.428,4.24L34.428,4.24z"/>
	<rect x="63.4" y="10.572" fill="#FFFFFF" width="13.224" height="3"/>
	<rect x="86.885" y="10.572" fill="#FFFFFF" width="13.225" height="3"/>
	<rect x="86.885" y="18.572" fill="#FFFFFF" width="13.225" height="3"/>
	<path fill="#FFFFFF" d="M92.571,43.563l31.474,11.697l-5.934,5.933L128,71.081l-7.91,7.911l-9.889-9.89l-5.934,5.935L92.571,43.563
		 M97.664,48.656l7.788,20.955l2.628-2.629l2.121-2.122l2.121,2.122l7.768,7.768l3.668-3.669l-7.768-7.768l-2.121-2.121l2.121-2.121
		l2.629-2.627L97.664,48.656L97.664,48.656z"/>
	
		<rect x="34.941" y="14.254" transform="matrix(0.9397 0.3421 -0.3421 0.9397 7.8633 -13.2687)" fill="#FFFFFF" width="13.224" height="2.814"/>
	<polygon fill="#FFFFFF" points="103.574,71.556 103.574,96.572 83.126,96.572 83.126,3 103.574,3 103.574,49.138 106.574,50.24 
		106.574,0 80.125,0 80.125,99.572 106.574,99.572 106.574,69.535 	"/>
</g>
</svg>
