<?xml version="1.0" encoding="utf-8"?>
<!-- Generator: Adobe Illustrator 13.0.0, SVG Export Plug-In . SVG Version: 6.00 Build 14948)  -->
<!DOCTYPE svg PUBLIC "-//W3C//DTD SVG 1.1//EN" "http://www.w3.org/Graphics/SVG/1.1/DTD/svg11.dtd">
<svg version="1.1" id="Layer_1" xmlns="http://www.w3.org/2000/svg" xmlns:xlink="http://www.w3.org/1999/xlink" x="0px" y="0px"
	 width="128px" height="127.5px" viewBox="0 0 128 127.5" enable-background="new 0 0 128 127.5" xml:space="preserve">
<g>
	<path fill="#FFFFFF" d="M128,6.5v121H0V6.5H128 M125,9.5H3v115h122V9.5L125,9.5z"/>
	<rect y="29.5" fill="#FFFFFF" width="126" height="3"/>
	<path fill="none" stroke="#FFFFFF" stroke-width="3" d="M26,8.5c0-3.866,3.134-7,7-7s7,3.134,7,7"/>
	<path fill="none" stroke="#FFFFFF" stroke-width="3" d="M91,8.5c0-3.866,3.134-7,7-7s7,3.134,7,7"/>
	<path fill="#FFFFFF" d="M41,42.5v30H11v-30H41 M38,45.5H14V69.5h24V45.5L38,45.5z"/>
	<path fill="#FFFFFF" d="M41,82.5v30H11v-30H41 M38,85.501H14V109.5h24V85.501L38,85.501z"/>
	<path fill="#FFFFFF" d="M79,42.5v30H49v-30H79 M76,45.5H52V69.5h24V45.5L76,45.5z"/>
	<path fill="#FFFFFF" d="M79,82.5v30H49v-30H79 M76,85.499H52V109.5h24V85.499L76,85.499z"/>
	<path fill="#FFFFFF" d="M117,42.5v30H87v-30H117 M114,45.5H90v24h24V45.5L114,45.5z"/>
</g>
</svg>
