<?xml version="1.0" encoding="utf-8"?>
<!-- Generator: Adobe Illustrator 13.0.0, SVG Export Plug-In . SVG Version: 6.00 Build 14948)  -->
<!DOCTYPE svg PUBLIC "-//W3C//DTD SVG 1.1//EN" "http://www.w3.org/Graphics/SVG/1.1/DTD/svg11.dtd">
<svg version="1.1" id="Layer_1" xmlns="http://www.w3.org/2000/svg" xmlns:xlink="http://www.w3.org/1999/xlink" x="0px" y="0px"
	 width="128px" height="109px" viewBox="0 0 128 109" enable-background="new 0 0 128 109" xml:space="preserve">
<g>
	<g>
		<path fill="none" stroke="#FFFFFF" stroke-width="3" d="M1.5,109V71.874c0-7.18,5.82-13,13-13h20"/>
	</g>
	<circle fill="none" stroke="#FFFFFF" stroke-width="3" cx="24.04" cy="38.5" r="15"/>
	<g>
		<path fill="none" stroke="#FFFFFF" stroke-width="3" d="M93.5,58.874h20c7.18,0,13,5.82,13,13V109"/>
	</g>
	<g>
		<path fill="none" stroke="#FFFFFF" stroke-width="3" d="M33.882,109V66c0-10.493,8.507-19,19-19h22c10.493,0,19,8.507,19,19v43"/>
	</g>
	<circle fill="none" stroke="#FFFFFF" stroke-width="3" cx="63.5" cy="21.5" r="20"/>
	<circle fill="none" stroke="#FFFFFF" stroke-width="3" cx="104.5" cy="38.5" r="15"/>
	<rect x="12.5" y="93.5" fill="#FFFFFF" width="3" height="15.5"/>
	<rect x="112.5" y="93.5" fill="#FFFFFF" width="3" height="15.5"/>
	<rect x="46.5" y="83.5" fill="#FFFFFF" width="3" height="25.5"/>
	<rect x="78.5" y="83.5" fill="#FFFFFF" width="3" height="25.5"/>
	<polyline fill="none" stroke="#FFFFFF" stroke-width="3" stroke-linecap="round" stroke-linejoin="round" points="46.5,48.5 
		63.5,71.5 80.5,48.5 	"/>
	<polyline fill="none" stroke="#FFFFFF" stroke-width="3" stroke-linecap="round" stroke-linejoin="round" points="58.5,64.5 
		63.5,48.5 68.5,64.5 	"/>
</g>
</svg>
